<svg width="23" height="23" viewBox="0 0 23 23" fill="none" xmlns="http://www.w3.org/2000/svg">
<path d="M10.6838 12.3162H5.4647C5.23422 12.3162 5.04056 12.2373 4.88371 12.0795C4.72686 11.9218 4.64844 11.7272 4.64844 11.4956C4.64844 11.2642 4.72686 11.071 4.88371 10.9161C5.04056 10.7611 5.23422 10.6837 5.4647 10.6837H10.6838V5.46459C10.6838 5.23459 10.7627 5.04013 10.9205 4.8812C11.0781 4.72212 11.2728 4.64258 11.5044 4.64258C11.7358 4.64258 11.929 4.72212 12.0839 4.8812C12.2388 5.04013 12.3163 5.23459 12.3163 5.46459V10.6837H17.5354C17.7654 10.6837 17.9598 10.7626 18.1188 10.9204C18.2779 11.078 18.3574 11.2726 18.3574 11.5042C18.3574 11.7357 18.2779 11.9289 18.1188 12.0838C17.9598 12.2387 17.7654 12.3162 17.5354 12.3162H12.3163V17.5353C12.3163 17.7658 12.2374 17.9594 12.0796 18.1163C11.9219 18.2731 11.7273 18.3515 11.4957 18.3515C11.2643 18.3515 11.0711 18.2731 10.9162 18.1163C10.7612 17.9594 10.6838 17.7658 10.6838 17.5353V12.3162Z" fill="#CCCCCC"/>
</svg>
