<svg width="26" height="26" viewBox="0 0 24 24" fill="none" xmlns="http://www.w3.org/2000/svg">
  <!-- Outer Box: Adjusted with rx="4" for a smooth, subtle corner rounding -->
  <rect x="3.7" y="3.7" width="16.6" height="16.6" rx="4" stroke="#F5F5F5" stroke-width="1.7" fill="none"/>
  
  <!-- Inner Plus Sign: Kept exactly the same as your original vector data -->
  <path d="M11.1843 12.816V16.2202C11.1843 16.4514 11.2628 16.6451 11.4198 16.8015C11.5767 16.9578 11.7712 17.036 12.0033 17.036C12.2353 17.036 12.4288 16.9578 12.5836 16.8015C12.7384 16.6451 12.8158 16.4514 12.8158 16.2202V12.816H16.2201C16.4513 12.816 16.645 12.7375 16.8013 12.5805C16.9577 12.4236 17.0358 12.2291 17.0358 11.997C17.0358 11.765 16.9577 11.5716 16.8013 11.4167C16.645 11.2619 16.4513 11.1845 16.2201 11.1845H12.8158V7.78023C12.8158 7.54906 12.7373 7.35531 12.5803 7.19898C12.4235 7.04264 12.229 6.96448 11.9968 6.96448C11.7648 6.96448 11.5714 7.04264 11.4166 7.19898C11.2618 7.35531 11.1843 7.54906 11.1843 7.78023V11.1845H7.78009C7.54892 11.1845 7.35517 11.263 7.19884 11.42C7.0425 11.5768 6.96434 11.7713 6.96434 12.0035C6.96434 12.2355 7.0425 12.4289 7.19884 12.5837C7.35517 12.7386 7.54892 12.816 7.78009 12.816H11.1843Z" fill="#F5F5F5"/>
</svg>
