<svg width="14" height="14" viewBox="0 0 14 14" fill="none" xmlns="http://www.w3.org/2000/svg">
<path d="M7.00002 8.54285L11.5519 3.99095C11.6705 3.87477 11.8187 3.8161 11.9966 3.81493C12.1744 3.81376 12.3275 3.87244 12.4558 3.99095C12.5818 4.11928 12.6448 4.27236 12.6448 4.45018C12.6448 4.628 12.5818 4.77991 12.4558 4.90591L7.69623 9.66547C7.59706 9.76464 7.48706 9.83653 7.36621 9.88116C7.24526 9.92588 7.1232 9.94824 7.00002 9.94824C6.87684 9.94824 6.75478 9.92588 6.63383 9.88116C6.51299 9.83653 6.40298 9.76464 6.30381 9.66547L1.53317 4.89133C1.40483 4.76533 1.34256 4.61643 1.34635 4.44464C1.35005 4.27285 1.41601 4.12162 1.54425 3.99095C1.67258 3.87477 1.82323 3.81425 1.99619 3.80939C2.16915 3.80453 2.31979 3.86505 2.44813 3.99095L7.00002 8.54285Z" fill="#CCCCCC"/>
</svg>
