<svg width="47" height="48" viewBox="0 0 47 48" fill="none" xmlns="http://www.w3.org/2000/svg">
    <path d="M23.5151 8.87305C23.8126 8.87311 24.0732 8.98017 24.3179 9.22754H24.3188C24.5682 9.48842 24.6792 9.76866 24.6792 10.0869C24.6792 10.4049 24.5692 10.6795 24.3237 10.9316L13.5376 21.9463L12.7056 22.7969H37.7915C38.1438 22.7969 38.4134 22.9102 38.6353 23.1338C38.8558 23.3561 38.9712 23.6323 38.9712 24C38.9712 24.3677 38.8558 24.6439 38.6353 24.8662C38.4134 25.0898 38.1438 25.2031 37.7915 25.2031H12.7056L13.5376 26.0537L24.311 37.0557C24.5572 37.3076 24.6707 37.5854 24.6733 37.9102V37.9111C24.676 38.2331 24.5669 38.5096 24.3218 38.7627H24.3208C24.077 39.0149 23.8133 39.1238 23.5063 39.1211C23.1937 39.1183 22.9235 39.0052 22.6753 38.7539L9.06689 24.8555C8.92597 24.7096 8.8361 24.5718 8.78369 24.4434V24.4424C8.72792 24.3058 8.69879 24.1595 8.69873 23.999C8.69873 23.8384 8.72721 23.6919 8.78271 23.5566L8.78369 23.5557C8.83606 23.4275 8.92477 23.289 9.06592 23.1436L9.06689 23.1445L22.6831 9.23828C22.9428 8.98221 23.2143 8.87305 23.5151 8.87305Z" fill="#CCCCCC" stroke="#CCCCCC"/>
</svg>
