<svg width="24" height="24" viewBox="0 0 24 24" fill="none" xmlns="http://www.w3.org/2000/svg">
<path d="M9.35554 11.9999L17.1588 19.8031C17.358 20.0065 17.4585 20.2606 17.4605 20.5654C17.4625 20.8702 17.362 21.1326 17.1588 21.3526C16.9388 21.5686 16.6764 21.6766 16.3715 21.6766C16.0667 21.6766 15.8063 21.5686 15.5903 21.3526L7.43104 13.1934C7.26104 13.0234 7.13779 12.8348 7.06129 12.6276C6.98462 12.4203 6.94629 12.2111 6.94629 11.9999C6.94629 11.7887 6.98462 11.5795 7.06129 11.3721C7.13779 11.165 7.26104 10.9764 7.43104 10.8064L15.6153 2.62815C15.8313 2.40815 16.0865 2.3014 16.381 2.3079C16.6755 2.31423 16.9348 2.42731 17.1588 2.64715C17.358 2.86715 17.4617 3.1254 17.47 3.4219C17.4784 3.7184 17.3746 3.97665 17.1588 4.19665L9.35554 11.9999Z" fill="white"/>
</svg>
