<svg width="16" height="15" viewBox="0 0 16 15" fill="none" xmlns="http://www.w3.org/2000/svg">
<path d="M3.4867 5.40769L6.85346 0.298312C6.92576 0.198812 7.00849 0.124187 7.10165 0.0744369C7.19493 0.0248119 7.30075 0 7.4191 0C7.53746 0 7.64328 0.0248119 7.73656 0.0744369C7.82998 0.124187 7.91284 0.198812 7.98515 0.298312L11.3565 5.40769C11.4288 5.52081 11.4616 5.63456 11.455 5.74894C11.4484 5.86331 11.4164 5.97019 11.3588 6.06956C11.3014 6.16906 11.2219 6.24756 11.1203 6.30506C11.0187 6.36256 10.9023 6.39131 10.771 6.39131H4.06758C3.93472 6.39131 3.81682 6.36206 3.71391 6.30356C3.61099 6.24519 3.53294 6.16719 3.47977 6.06956C3.42224 5.97031 3.39018 5.86375 3.38358 5.74987C3.37699 5.63587 3.41136 5.52181 3.4867 5.40769ZM11.9702 14.8344C10.9623 14.8344 10.1168 14.5104 9.4339 13.8624C8.75108 13.2146 8.40968 12.4134 8.40968 11.4591C8.40968 10.5047 8.75095 9.70306 9.4335 9.05419C10.1159 8.40519 10.9615 8.08069 11.9704 8.08069C12.9792 8.08069 13.8254 8.405 14.5089 9.05362C15.1922 9.70212 15.5339 10.504 15.5339 11.4592C15.5339 12.4145 15.1919 13.2159 14.5079 13.8634C13.824 14.5107 12.9781 14.8344 11.9702 14.8344ZM0 13.7226V9.08025C0 8.90025 0.0647847 8.74806 0.194354 8.62369C0.323924 8.49919 0.485424 8.43694 0.678854 8.43694H5.58382C5.77409 8.43694 5.93407 8.49919 6.06377 8.62369C6.19334 8.74806 6.25812 8.90025 6.25812 9.08025V13.7226C6.25812 13.9058 6.19334 14.0588 6.06377 14.1816C5.93407 14.3043 5.77409 14.3657 5.58382 14.3657H0.678854C0.485424 14.3657 0.323924 14.3043 0.194354 14.1816C0.0647847 14.0588 0 13.9058 0 13.7226ZM11.9736 13.5525C12.5932 13.5525 13.1159 13.3502 13.5419 12.9456C13.9678 12.5411 14.1807 12.0453 14.1807 11.4583C14.1807 10.8713 13.9672 10.3753 13.5401 9.97031C13.1131 9.56519 12.5898 9.36262 11.9702 9.36262C11.3506 9.36262 10.827 9.56569 10.3995 9.97181C9.9719 10.3779 9.75808 10.8745 9.75808 11.4615C9.75808 12.0485 9.97243 12.5437 10.4011 12.9472C10.8298 13.3507 11.354 13.5525 11.9736 13.5525ZM1.35316 13.0837H4.90972V9.71887H1.35316V13.0837ZM5.28319 5.10937H9.55542L7.4193 1.83206L5.28319 5.10937Z" fill="#CCCCCC"/>
</svg>
