<svg width="24" height="24" viewBox="0 0 24 24" fill="none" xmlns="http://www.w3.org/2000/svg">
<path d="M10.5131 14.1197L8.17684 11.7835C8.01084 11.6175 7.80734 11.5345 7.56634 11.5345C7.32534 11.5345 7.11192 11.6258 6.92609 11.8085C6.76025 11.9783 6.67734 12.1836 6.67734 12.4242C6.67734 12.6647 6.76225 12.868 6.93209 13.034L9.91034 16.0372C10.0822 16.2071 10.2826 16.292 10.5116 16.292C10.7406 16.292 10.942 16.2071 11.1158 16.0372L17.0191 10.128C17.2058 9.94531 17.2991 9.73448 17.2991 9.49548C17.2991 9.25648 17.2058 9.04414 17.0191 8.85848C16.8364 8.69248 16.6204 8.61364 16.3711 8.62198C16.1218 8.63031 15.9126 8.71748 15.7436 8.88348L10.5131 14.1197ZM12.0008 22.1497C10.6098 22.1497 9.297 21.8841 8.06234 21.3527C6.82784 20.8214 5.74959 20.0947 4.82759 19.1727C3.90559 18.2507 3.17892 17.1727 2.64759 15.9387C2.11625 14.7047 1.85059 13.3921 1.85059 12.001C1.85059 10.5933 2.11625 9.27214 2.64759 8.03748C3.17892 6.80298 3.90525 5.72881 4.82659 4.81498C5.74792 3.90098 6.82575 3.17748 8.06009 2.64448C9.29442 2.11131 10.6073 1.84473 11.9988 1.84473C13.4068 1.84473 14.7284 2.11114 15.9636 2.64398C17.1986 3.17681 18.2728 3.89989 19.1863 4.81323C20.1 5.72656 20.8233 6.80056 21.3561 8.03523C21.8891 9.26989 22.1556 10.5916 22.1556 12.0002C22.1556 13.3919 21.889 14.705 21.3558 15.9395C20.8228 17.174 20.0993 18.252 19.1853 19.1735C18.2715 20.095 17.1976 20.8214 15.9636 21.3527C14.7296 21.8841 13.4087 22.1497 12.0008 22.1497ZM12.0001 20.4465C14.3508 20.4465 16.3462 19.6236 17.9863 17.9777C19.6263 16.3317 20.4463 14.3392 20.4463 12.0002C20.4463 9.64956 19.6263 7.65414 17.9863 6.01398C16.3462 4.37398 14.3498 3.55398 11.9971 3.55398C9.66109 3.55398 7.66984 4.37398 6.02334 6.01398C4.377 7.65414 3.55384 9.65056 3.55384 12.0032C3.55384 14.3392 4.37675 16.3305 6.02259 17.977C7.66859 19.6233 9.66109 20.4465 12.0001 20.4465Z" fill="#F5F5F5"/>
</svg>
