<svg width="20" height="20" viewBox="0 0 20 20" fill="none" xmlns="http://www.w3.org/2000/svg">
<g clip-path="url(#clip0_10204_323)">
<path d="M10 0.833008V19.1663M14.1667 4.16634H7.91667C7.14312 4.16634 6.40125 4.47363 5.85427 5.02061C5.30729 5.56759 5 6.30946 5 7.08301C5 7.85656 5.30729 8.59842 5.85427 9.1454C6.40125 9.69238 7.14312 9.99967 7.91667 9.99967H12.0833C12.8569 9.99967 13.5987 10.307 14.1457 10.8539C14.6927 11.4009 15 12.1428 15 12.9163C15 13.6899 14.6927 14.4318 14.1457 14.9787C13.5987 15.5257 12.8569 15.833 12.0833 15.833H5" stroke="#F5F5F5" stroke-width="2" stroke-linecap="round" stroke-linejoin="round"/>
</g>
<defs>
<clipPath id="clip0_10204_323">
<rect width="20" height="20" fill="white"/>
</clipPath>
</defs>
</svg>
