<svg width="21" height="19" viewBox="0 0 21 19" fill="none" xmlns="http://www.w3.org/2000/svg">
<path d="M17.4315 12.6627H14.2045C13.9939 12.6627 13.818 12.5988 13.6766 12.4709C13.5352 12.3429 13.4645 12.1822 13.4645 11.9886C13.4645 11.7949 13.5352 11.6341 13.6766 11.5063C13.818 11.3783 13.9957 11.3143 14.2097 11.3143H17.4315L16.3425 10.3338C16.1938 10.1992 16.1194 10.0417 16.1194 9.86138C16.1194 9.68101 16.1955 9.52354 16.3478 9.38896C16.4964 9.25437 16.6732 9.18629 16.8783 9.1847C17.0832 9.18312 17.2617 9.2512 17.414 9.38896L19.7596 11.5209C19.8396 11.5932 19.8967 11.667 19.9311 11.7424C19.9656 11.8179 19.9828 11.9015 19.9828 11.9933C19.9828 12.0819 19.9656 12.1647 19.9311 12.2417C19.8967 12.3188 19.8396 12.3935 19.7596 12.4658L17.3921 14.5975C17.2399 14.7189 17.0641 14.7829 16.8647 14.7895C16.6652 14.7961 16.4912 14.7305 16.3425 14.5928C16.1938 14.4583 16.1185 14.3016 16.1168 14.1227C16.115 13.9439 16.1868 13.7873 16.332 13.6527L17.4315 12.6627ZM9.58208 10.0011L14.3751 4.3971H4.77877L9.58208 10.0011ZM7.93489 10.2855L2.64114 4.1218C2.59039 4.05266 2.5532 3.98695 2.52958 3.92467C2.50595 3.86253 2.49414 3.7953 2.49414 3.723C2.49414 3.5425 2.56035 3.38423 2.69277 3.24819C2.82504 3.11203 3.00726 3.04395 3.23942 3.04395H15.9416C16.1701 3.04395 16.3514 3.11203 16.4856 3.24819C16.6198 3.38423 16.6869 3.5425 16.6869 3.723C16.6869 3.7953 16.6742 3.86253 16.6488 3.92467C16.6234 3.98695 16.5871 4.05266 16.5399 4.1218L11.2461 10.2855V15.2778C11.2461 15.4715 11.1754 15.6322 11.0339 15.7601C10.8926 15.8881 10.7149 15.9521 10.5008 15.9521H8.6852C8.46777 15.9521 8.28832 15.8881 8.14686 15.7601C8.00555 15.6322 7.93489 15.4715 7.93489 15.2778V10.2855Z" fill="#CCCCCC"/>
</svg>
