<svg width="24" height="24" viewBox="0 0 24 24" fill="none" xmlns="http://www.w3.org/2000/svg">
<path d="M13.1066 11.9746L8.75334 7.62135C8.58334 7.45135 8.5025 7.25244 8.51084 7.0246C8.51917 6.79677 8.60834 6.59785 8.77834 6.42785C8.94834 6.25785 9.15142 6.17285 9.38759 6.17285C9.62375 6.17285 9.82684 6.25785 9.99684 6.42785L14.9408 11.3719C15.0322 11.4632 15.0985 11.5585 15.1398 11.6579C15.1812 11.757 15.2018 11.8626 15.2018 11.9746C15.2018 12.0866 15.1812 12.1922 15.1398 12.2914C15.0985 12.3907 15.0322 12.486 14.9408 12.5774L9.97184 17.5464C9.80184 17.7164 9.60292 17.7972 9.37509 17.7889C9.14725 17.7805 8.94834 17.6914 8.77834 17.5214C8.60834 17.3514 8.52334 17.1483 8.52334 16.9121C8.52334 16.6759 8.60834 16.4729 8.77834 16.3029L13.1066 11.9746Z" fill="#CCCCCC"/>
</svg>
