<svg width="24" height="24" viewBox="0 0 24 24" fill="none" xmlns="http://www.w3.org/2000/svg">
<path d="M11.8651 20.5002C11.9471 20.5002 12.0423 20.4804 12.1506 20.4407C12.2589 20.401 12.3484 20.3459 12.4191 20.2752L20.8201 11.8492C21.0446 11.6245 21.2151 11.3671 21.3316 11.0769C21.4479 10.7869 21.5061 10.4888 21.5061 10.1824C21.5061 9.87894 21.4479 9.57686 21.3316 9.2762C21.2151 8.97553 21.0446 8.71103 20.8201 8.4827L16.4876 4.1502C16.2669 3.93353 16.0119 3.77103 15.7224 3.6627C15.433 3.55436 15.1434 3.5002 14.8534 3.5002C14.5637 3.5002 14.2787 3.55336 13.9984 3.6597C13.718 3.76603 13.4715 3.92353 13.2589 4.1322L12.8506 4.54644L14.8399 6.55444C15.0684 6.80378 15.2709 7.09161 15.4476 7.41795C15.6243 7.74411 15.7126 8.10261 15.7126 8.49344C15.7126 9.15844 15.4527 9.74653 14.9329 10.2577C14.4129 10.769 13.8179 11.0247 13.1481 11.0247C12.7089 11.0247 12.3439 10.9582 12.0529 10.8252C11.7619 10.6922 11.4918 10.5011 11.2426 10.2519L9.42936 8.43869L5.01211 12.8562C4.92877 12.9364 4.87044 13.0228 4.83711 13.1154C4.80377 13.2081 4.78711 13.305 4.78711 13.4062C4.78711 13.6229 4.85744 13.801 4.99811 13.9407C5.13877 14.0804 5.31677 14.1502 5.53211 14.1502C5.63144 14.1502 5.72769 14.1252 5.82086 14.0752C5.91419 14.0252 5.99461 13.9669 6.06211 13.9002L8.9256 11.0372C9.07677 10.8857 9.25236 10.8099 9.45236 10.8099C9.65236 10.8099 9.82736 10.8859 9.97736 11.0379C10.1274 11.1899 10.2024 11.3652 10.2024 11.5637C10.2024 11.7622 10.1274 11.9359 9.97736 12.0849L7.13761 14.9244C7.05394 15.0083 6.99544 15.1015 6.96211 15.2042C6.92877 15.307 6.91211 15.4077 6.91211 15.5062C6.91211 15.7077 6.98511 15.8821 7.1311 16.0294C7.27711 16.1766 7.45011 16.2502 7.65011 16.2502C7.75011 16.2502 7.84719 16.2292 7.94136 16.1872C8.03552 16.1454 8.11802 16.0909 8.18886 16.0239L11.0384 13.1682C11.1897 13.0167 11.3654 12.9419 11.5654 12.9439C11.7654 12.9459 11.9404 13.0199 12.0904 13.1659C12.2404 13.3159 12.3154 13.4909 12.3154 13.6909C12.3154 13.8909 12.2404 14.0659 12.0904 14.2159L9.24486 17.0557C9.18169 17.1227 9.12827 17.2104 9.08461 17.3187C9.04094 17.427 9.01911 17.5312 9.01911 17.6312C9.01911 17.8312 9.09411 18.0062 9.24411 18.1562C9.39411 18.3062 9.56911 18.3812 9.76911 18.3812C9.86911 18.3812 9.96144 18.3635 10.0461 18.3282C10.1309 18.2929 10.2136 18.2355 10.2941 18.1562L13.1594 15.2849C13.3084 15.1349 13.4831 15.0609 13.6836 15.0629C13.8841 15.0649 14.0594 15.1389 14.2094 15.2849C14.3594 15.4389 14.4344 15.6152 14.4344 15.8137C14.4344 16.0122 14.3594 16.1859 14.2094 16.3349L11.3441 19.2002C11.2648 19.2835 11.2074 19.3765 11.1721 19.4792C11.1368 19.582 11.1191 19.6744 11.1191 19.7562C11.1191 19.991 11.1858 20.1738 11.3191 20.3044C11.4524 20.4349 11.6344 20.5002 11.8651 20.5002ZM11.8691 22.1377C11.2993 22.1377 10.7887 21.9325 10.3374 21.5222C9.88602 21.1119 9.61077 20.6007 9.51161 19.9887C8.95277 19.9014 8.48077 19.6641 8.09561 19.2769C7.71027 18.8896 7.47394 18.4185 7.38661 17.8637C6.83577 17.7725 6.37186 17.532 5.99486 17.1422C5.61786 16.7525 5.38377 16.2887 5.29261 15.7507C4.67194 15.6515 4.15861 15.3825 3.75261 14.9437C3.34661 14.505 3.14361 13.9841 3.14361 13.3809C3.14361 13.0818 3.20144 12.7827 3.31711 12.4837C3.43261 12.1847 3.60336 11.9206 3.82936 11.6914L8.23586 7.28495C8.56186 6.96178 8.96036 6.8002 9.43136 6.8002C9.90252 6.8002 10.3017 6.96178 10.6289 7.28495L12.2691 8.9252C12.4024 9.05853 12.5489 9.1637 12.7086 9.2407C12.8683 9.3177 13.0258 9.35619 13.1811 9.35619C13.3943 9.35619 13.5956 9.26078 13.7851 9.06994C13.9744 8.87928 14.0691 8.67636 14.0691 8.4612C14.0691 8.36186 14.0379 8.24769 13.9756 8.1187C13.9133 7.9897 13.8174 7.85845 13.6879 7.72495L10.1009 4.1377C9.88836 3.92536 9.63536 3.76603 9.34186 3.6597C9.04852 3.55336 8.75286 3.5002 8.45486 3.5002C8.15269 3.5002 7.86261 3.55336 7.58461 3.6597C7.30661 3.76603 7.06361 3.92503 6.85561 4.1367L3.11436 7.86645C2.80086 8.18395 2.60861 8.5712 2.53761 9.0282C2.46661 9.4852 2.51877 9.92044 2.69411 10.3339C2.76544 10.5371 2.75252 10.7385 2.65536 10.9382C2.55802 11.1379 2.40669 11.2774 2.20136 11.3567C1.99619 11.436 1.78861 11.4241 1.57861 11.3209C1.36861 11.2176 1.22494 11.0624 1.14761 10.8552C0.882272 10.117 0.809939 9.38311 0.930605 8.65345C1.05127 7.92378 1.39727 7.27286 1.96861 6.7007L5.67786 2.9867C6.05252 2.61203 6.48736 2.3352 6.98236 2.1562C7.47736 1.9772 7.97652 1.8877 8.47986 1.8877C8.99502 1.8877 9.49302 1.9772 9.97386 2.1562C10.4545 2.3352 10.8812 2.60803 11.2539 2.97469L11.6681 3.3827L12.0761 2.97469C12.4468 2.61203 12.8791 2.34019 13.3731 2.15919C13.8671 1.97819 14.3684 1.8877 14.8769 1.8877C15.384 1.8877 15.8797 1.98019 16.3639 2.16519C16.8482 2.35019 17.2777 2.62994 17.6524 3.00444L22.0019 7.34794C22.3805 7.72511 22.6644 8.16436 22.8536 8.6657C23.0429 9.16703 23.1376 9.67261 23.1376 10.1824C23.1376 10.6924 23.0399 11.1962 22.8446 11.6937C22.6494 12.1912 22.3625 12.6312 21.9839 13.0137L13.5649 21.4269C13.3362 21.6554 13.0764 21.831 12.7854 21.9537C12.4945 22.0764 12.1891 22.1377 11.8691 22.1377Z" fill="#F5F5F5"/>
</svg>
