<svg width="23" height="25" viewBox="0 0 23 25" fill="none" xmlns="http://www.w3.org/2000/svg">
<path d="M19.9719 4.80203C19.4824 4.26974 18.9012 3.8475 18.2616 3.55941C17.6219 3.27133 16.9363 3.12305 16.2439 3.12305C15.5516 3.12305 14.866 3.27133 14.2263 3.55941C13.5867 3.8475 13.0055 4.26974 12.516 4.80203L11.5002 5.9062L10.4844 4.80203C9.49566 3.72735 8.15469 3.1236 6.75645 3.1236C5.35821 3.1236 4.01723 3.72735 3.02853 4.80203C2.03982 5.87671 1.48438 7.33429 1.48438 8.85411C1.48437 10.3739 2.03982 11.8315 3.02853 12.9062L11.5002 22.1145L19.9719 12.9062C20.4616 12.3742 20.85 11.7425 21.1151 11.0472C21.3801 10.3519 21.5165 9.60671 21.5165 8.85411C21.5165 8.10152 21.3801 7.35631 21.1151 6.66104C20.85 5.96577 20.4616 5.33407 19.9719 4.80203Z" stroke="#D9D9D9" stroke-width="1.6" stroke-linecap="round" stroke-linejoin="round"/>
</svg>
