<svg width="20" height="20" viewBox="0 0 20 20" fill="none" xmlns="http://www.w3.org/2000/svg">
<path d="M9.93309 17.6243C7.94406 17.6243 6.23552 16.9586 4.80747 15.6272C3.37927 14.2958 2.58052 12.6529 2.41122 10.6985C2.38733 10.5115 2.44191 10.3473 2.57497 10.2059C2.70788 10.0646 2.87615 9.9922 3.07976 9.98887C3.2699 9.98553 3.43399 10.0479 3.57205 10.176C3.70997 10.3039 3.79781 10.4681 3.83559 10.6687C3.99837 12.2327 4.6542 13.5464 5.80309 14.6097C6.95184 15.6732 8.3283 16.2049 9.93247 16.2049C11.6798 16.2049 13.1613 15.5913 14.3768 14.3641C15.5924 13.1369 16.2002 11.6476 16.2002 9.89637C16.2002 8.18692 15.5865 6.74255 14.3591 5.56324C13.1316 4.38407 11.6561 3.79449 9.93247 3.79449C9.01455 3.79449 8.1524 3.999 7.34601 4.40803C6.53948 4.81692 5.83566 5.3606 5.23455 6.03908H6.66247C6.85024 6.03908 7.00635 6.1013 7.1308 6.22574C7.25524 6.35019 7.31747 6.5063 7.31747 6.69408C7.31747 6.88449 7.25524 7.04206 7.1308 7.16678C7.00635 7.29151 6.85024 7.35387 6.66247 7.35387H3.5733C3.36955 7.35387 3.20031 7.28651 3.06559 7.15178C2.93101 7.0172 2.86372 6.84796 2.86372 6.64407V3.57574C2.86372 3.3881 2.92524 3.23289 3.0483 3.11012C3.17122 2.98734 3.32712 2.92595 3.51601 2.92595C3.7049 2.92595 3.86087 2.98734 3.98392 3.11012C4.10698 3.23289 4.16851 3.3881 4.16851 3.57574V5.07949C4.90059 4.2388 5.76483 3.57706 6.76122 3.09428C7.75761 2.61151 8.81469 2.37012 9.93247 2.37012C10.9908 2.37012 11.9857 2.56873 12.9173 2.96595C13.8489 3.36317 14.6647 3.90442 15.3645 4.5897C16.0645 5.27498 16.6154 6.07644 17.017 6.99407C17.4187 7.91171 17.6195 8.8997 17.6195 9.95803C17.6195 11.0164 17.4187 12.0113 17.017 12.9428C16.6154 13.8744 16.0645 14.6862 15.3645 15.3785C14.6647 16.0707 13.8489 16.618 12.9173 17.0205C11.9857 17.423 10.991 17.6243 9.93309 17.6243ZM10.6756 9.70928L13.0356 12.0216C13.1713 12.157 13.2391 12.3146 13.2391 12.4945C13.2391 12.6744 13.1725 12.8305 13.0391 12.963C12.9058 13.098 12.752 13.1655 12.5779 13.1655C12.4039 13.1655 12.2502 13.098 12.1168 12.963L9.5783 10.4662C9.50219 10.3934 9.44858 10.3141 9.41747 10.2282C9.38636 10.1424 9.3708 10.0507 9.3708 9.95303V6.42053C9.3708 6.23276 9.43302 6.07748 9.55747 5.9547C9.68177 5.83192 9.83767 5.77053 10.0252 5.77053C10.2128 5.77053 10.3682 5.83192 10.4912 5.9547C10.6141 6.07748 10.6756 6.23276 10.6756 6.42053V9.70928Z" fill="white"/>
</svg>
