<svg width="24" height="24" viewBox="0 0 24 24" fill="none" xmlns="http://www.w3.org/2000/svg">
<path d="M5.55384 19.4462H9.14834V13.9999C9.14834 13.7596 9.23025 13.5576 9.39409 13.3939C9.55775 13.2301 9.75975 13.1482 10.0001 13.1482H14.0001C14.2404 13.1482 14.4424 13.2301 14.6061 13.3939C14.7699 13.5576 14.8518 13.7596 14.8518 13.9999V19.4462H18.4463V9.77594L12.0001 4.9407L5.55384 9.77594V19.4462ZM3.85059 19.4462V9.77395C3.85059 9.50528 3.91009 9.25086 4.02909 9.01069C4.14792 8.77036 4.31434 8.57095 4.52834 8.41245L10.9746 3.57319C11.2718 3.34536 11.6123 3.23145 11.9961 3.23145C12.3799 3.23145 12.7231 3.34536 13.0256 3.57319L19.4718 8.41245C19.6877 8.57095 19.8556 8.77036 19.9756 9.01069C20.0956 9.25086 20.1556 9.50528 20.1556 9.77395V19.4462C20.1556 19.9187 19.9893 20.3207 19.6566 20.6522C19.3239 20.9837 18.9205 21.1494 18.4463 21.1494H14.0658C13.8255 21.1494 13.6235 21.0676 13.4598 20.9039C13.2962 20.7403 13.2143 20.5382 13.2143 20.2977V14.7857H10.7858V20.2977C10.7858 20.5382 10.704 20.7403 10.5403 20.9039C10.3767 21.0676 10.1747 21.1494 9.93434 21.1494H5.55384C5.08134 21.1494 4.67934 20.9837 4.34784 20.6522C4.01634 20.3207 3.85059 19.9187 3.85059 19.4462Z" fill="#F5F5F5"/>
</svg>
