<svg width="24" height="24" viewBox="0 0 24 24" fill="none" xmlns="http://www.w3.org/2000/svg">
<path d="M4.55384 7.35948V19.4465H19.4463V7.35948H16.0838V14.529C16.0838 14.8545 15.9503 15.1016 15.6831 15.2705C15.4158 15.4391 15.1412 15.4489 14.8593 15.2997L12.0001 13.8795L9.14084 15.2997C8.859 15.4489 8.58542 15.4391 8.32009 15.2705C8.05492 15.1016 7.92234 14.8545 7.92234 14.529V7.35948H4.55384ZM4.55384 21.1497C4.08134 21.1497 3.67934 20.984 3.34784 20.6525C3.01634 20.321 2.85059 19.919 2.85059 19.4465V6.43673C2.85059 6.24806 2.88059 6.06531 2.94059 5.88848C3.00059 5.71164 3.08892 5.54864 3.20559 5.39948L4.63009 3.48073C4.78225 3.27723 4.976 3.12039 5.21134 3.01023C5.44667 2.89989 5.69475 2.84473 5.95559 2.84473H18.0256C18.2824 2.84473 18.5285 2.89989 18.7638 3.01023C18.9992 3.12039 19.1929 3.27723 19.3451 3.48073L20.8006 5.39948C20.9133 5.54864 21.0006 5.71164 21.0626 5.88848C21.1246 6.06531 21.1556 6.24806 21.1556 6.43673V19.4465C21.1556 19.919 20.9893 20.321 20.6566 20.6525C20.3239 20.984 19.9205 21.1497 19.4463 21.1497H4.55384ZM5.08059 5.69798H18.8946L17.9843 4.54798H5.98059L5.08059 5.69798ZM9.58384 7.35948V13.2335L12.0001 12.0252L14.4223 13.2335V7.35948H9.58384Z" fill="#F5F5F5"/>
</svg>
