<svg width="21" height="21" viewBox="0 0 21 21" fill="none" xmlns="http://www.w3.org/2000/svg">
<path d="M10.5 2.11426C12.255 2.11427 13.7963 2.7244 15.1436 3.96387C16.4619 5.17667 17.1357 6.80663 17.1357 8.90918C17.1357 9.76189 16.9481 10.6154 16.5645 11.4727C16.1696 12.3551 15.6743 13.2011 15.0771 14.0098C14.474 14.8265 13.8185 15.5884 13.1113 16.2959C12.3919 17.0158 11.721 17.6517 11.0996 18.2051L11.0889 18.2158C11.0166 18.2842 10.934 18.3334 10.8359 18.3652C10.7134 18.405 10.5994 18.4229 10.4932 18.4229C10.3872 18.4229 10.2771 18.4048 10.1611 18.3662C10.0688 18.3355 9.99032 18.2886 9.92188 18.2217L9.9043 18.2041L9.42676 17.7744C9.10255 17.477 8.76685 17.1584 8.41895 16.8193L7.88867 16.2959C7.18147 15.5884 6.52599 14.8265 5.92285 14.0098C5.32586 13.2014 4.83154 12.3557 4.43848 11.4736C4.05637 10.6162 3.86914 9.76224 3.86914 8.90918C3.86922 6.80644 4.54269 5.17661 5.85938 3.96387C7.20483 2.72457 8.745 2.11426 10.5 2.11426ZM10.5 2.60938C8.79069 2.60938 7.3266 3.20058 6.14062 4.37988C4.94655 5.56732 4.35946 7.09179 4.35938 8.90918C4.35938 10.1685 4.88559 11.528 5.85547 12.9727C6.82595 14.4181 8.26564 16.0228 10.1592 17.7842L10.4961 18.0967L10.8359 17.7881C12.7743 16.0296 14.2282 14.4233 15.1797 12.9707C16.1273 11.5239 16.6406 10.1653 16.6406 8.90918C16.6405 7.09181 16.0534 5.56731 14.8594 4.37988H14.8584C13.6723 3.20085 12.2091 2.60944 10.5 2.60938ZM10.498 7.67773C10.8021 7.67775 11.0467 7.77809 11.2598 7.99023C11.4721 8.20161 11.5732 8.44481 11.5732 8.74805C11.5732 9.05194 11.4719 9.29495 11.2607 9.50586C11.0495 9.71678 10.8062 9.81835 10.502 9.81836C10.1971 9.81836 9.95383 9.71738 9.74316 9.50781C9.53309 9.29854 9.43262 9.0562 9.43262 8.75195C9.43269 8.44733 9.53297 8.20288 9.74316 7.99023C9.95266 7.77873 10.1947 7.67773 10.498 7.67773Z" fill="#AAAAAA" stroke="#AAAAAA"/>
</svg>
