<svg width="54" height="47" viewBox="0 0 54 47" fill="none" xmlns="http://www.w3.org/2000/svg">
<path d="M13 13.542H17L19.68 27.4899C19.7714 27.9695 20.0219 28.4003 20.3875 28.7069C20.7532 29.0135 21.2107 29.1764 21.68 29.167H31.4C31.8693 29.1764 32.3268 29.0135 32.6925 28.7069C33.0581 28.4003 33.3086 27.9695 33.4 27.4899L35 18.7503H18M22 34.3753C22 34.9506 21.5523 35.417 21 35.417C20.4477 35.417 20 34.9506 20 34.3753C20 33.8 20.4477 33.3337 21 33.3337C21.5523 33.3337 22 33.8 22 34.3753ZM33 34.3753C33 34.9506 32.5523 35.417 32 35.417C31.4477 35.417 31 34.9506 31 34.3753C31 33.8 31.4477 33.3337 32 33.3337C32.5523 33.3337 33 33.8 33 34.3753Z" stroke="#F3F3F3" stroke-width="2" stroke-linecap="round" stroke-linejoin="round"/>
<path d="M43.9717 36.5C39.8536 41.9547 33.1809 45.5 25.6496 45.5C13.1406 45.5 3 35.7194 3 23.6543C3 19.5794 4.1568 15.765 6.17095 12.5" stroke="#757575" stroke-width="3"/>
<path d="M11.8501 6C15.6296 3.17526 20.3364 1.5 25.4388 1.5C37.8989 1.5 47.9998 11.4903 47.9998 23.814C47.9998 25.4214 47.8279 26.989 47.5015 28.5" stroke="#757575" stroke-width="3"/>
<path d="M47.1775 33.8306C46.6532 34.361 45.7567 34.1626 45.5175 33.4632L43.8821 28.6833C43.6295 27.9452 44.2916 27.2105 45.0567 27.3798L50.2751 28.5347C51.0403 28.7041 51.3138 29.6459 50.7605 30.2057L47.1775 33.8306Z" fill="#757575"/>
<path d="M8.03575 7.90463C8.70312 7.57183 9.4876 8.04897 9.48836 8.78813L9.49355 13.84C9.49435 14.6202 8.63061 15.1019 7.96107 14.6947L3.39467 11.9173C2.72513 11.5101 2.77015 10.5304 3.47455 10.1792L8.03575 7.90463Z" fill="#757575"/>
</svg>
