<svg width="24" height="24" viewBox="0 0 24 24" fill="none" xmlns="http://www.w3.org/2000/svg">
<path d="M8.27609 21.1497C6.77425 21.1497 5.4945 20.621 4.43684 19.5635C3.37934 18.506 2.85059 17.2264 2.85059 15.7247C2.85059 15.0752 2.96009 14.4557 3.17909 13.8662C3.39792 13.2766 3.70475 12.7346 4.09959 12.2405L7.88759 7.71448L6.08059 4.06923C5.93125 3.78739 5.94209 3.51289 6.11309 3.24573C6.28392 2.97839 6.52792 2.84473 6.84509 2.84473H17.1801C17.4973 2.84473 17.7413 2.97839 17.9121 3.24573C18.0831 3.51289 18.0939 3.78739 17.9446 4.06923L16.1376 7.71448L19.8946 12.2405C20.3066 12.7358 20.6198 13.2781 20.8341 13.8672C21.0484 14.4566 21.1639 15.0754 21.1806 15.7237C21.1806 17.2266 20.6511 18.5066 19.5921 19.5637C18.5333 20.6211 17.2523 21.1497 15.7491 21.1497H8.27609ZM12.0001 15.61C11.5714 15.61 11.2114 15.4603 10.9201 15.161C10.6289 14.8618 10.4833 14.4956 10.4833 14.0622C10.4833 13.6336 10.6289 13.2694 10.9201 12.9697C11.2114 12.6701 11.5714 12.5202 12.0001 12.5202C12.4454 12.5202 12.8189 12.6696 13.1206 12.9685C13.4221 13.2671 13.5728 13.6327 13.5728 14.0652C13.5728 14.4977 13.4221 14.8633 13.1206 15.162C12.8189 15.4606 12.4454 15.61 12.0001 15.61ZM9.42284 6.99973H14.5833L15.8186 4.54798H8.20659L9.42284 6.99973ZM8.27609 19.4525H15.7241C16.7539 19.4525 17.6328 19.088 18.3606 18.359C19.0884 17.63 19.4523 16.7513 19.4523 15.723C19.4523 15.282 19.3793 14.8581 19.2333 14.4512C19.0873 14.0444 18.8746 13.6763 18.5951 13.347L14.7261 8.70298H9.27409L5.43059 13.347C5.15075 13.6763 4.93367 14.0447 4.77934 14.4522C4.625 14.8597 4.54784 15.2837 4.54784 15.7242C4.54784 16.7514 4.91242 17.6296 5.64159 18.3587C6.37075 19.0879 7.24892 19.4525 8.27609 19.4525Z" fill="#F5F5F5"/>
</svg>
