<svg width="24" height="24" viewBox="0 0 24 24" fill="none" xmlns="http://www.w3.org/2000/svg">
<path d="M8.04459 20.4463H15.9648L17.1316 15.9175H6.87459L8.04459 20.4463ZM8.04459 22.1495C7.65942 22.1495 7.31409 22.0311 7.00859 21.7943C6.70292 21.5573 6.49717 21.2509 6.39134 20.875L5.10934 15.9175H18.8968L17.6208 20.875C17.5143 21.2549 17.3074 21.5622 17.0001 21.797C16.6929 22.032 16.3488 22.1495 15.9676 22.1495H8.04459ZM4.55384 14.2143H19.4463V11.8935H4.55384V14.2143ZM12.0061 7.92727C12.0894 6.4366 12.6597 5.16569 13.7168 4.11452C14.7742 3.06319 16.0418 2.36052 17.5196 2.00652C17.6009 1.98985 17.6741 1.98669 17.7391 1.99702C17.8041 2.00735 17.8636 2.04052 17.9176 2.09652C17.9714 2.15252 18.0077 2.21377 18.0263 2.28027C18.045 2.34694 18.046 2.41727 18.0293 2.49127C17.746 3.82394 17.1454 4.98393 16.2276 5.97127C15.3096 6.9586 14.1843 7.57602 12.8518 7.82352V10.1843H20.2978C20.5378 10.1843 20.7408 10.2672 20.9066 10.433C21.0726 10.599 21.1556 10.8019 21.1556 11.0418V14.2143C21.1556 14.6866 20.9901 15.0885 20.6591 15.42C20.3279 15.7517 19.9336 15.9175 19.4761 15.9175H4.53009C4.06975 15.9175 3.67475 15.7517 3.34509 15.42C3.01542 15.0885 2.85059 14.6866 2.85059 14.2143V11.0418C2.85059 10.8019 2.93242 10.599 3.09609 10.433C3.25975 10.2672 3.46184 10.1843 3.70234 10.1843H11.1543V7.82727C9.81784 7.58527 8.69259 6.9686 7.77859 5.97727C6.86459 4.98594 6.26592 3.82394 5.98259 2.49127C5.96592 2.41727 5.96692 2.34694 5.98559 2.28027C6.00425 2.21377 6.04059 2.15252 6.09459 2.09652C6.14859 2.04052 6.2075 2.00319 6.27134 1.98452C6.335 1.96585 6.40675 1.96485 6.48659 1.98152C7.98109 2.31885 9.25792 3.02052 10.3171 4.08652C11.3764 5.15235 11.9394 6.4326 12.0061 7.92727Z" fill="#F5F5F5"/>
</svg>
