<svg width="24" height="24" viewBox="0 0 24 24" fill="none" xmlns="http://www.w3.org/2000/svg">
<path d="M9.37695 3.37305C11.0475 3.37314 12.4514 3.95621 13.6182 5.13086C14.7863 6.30676 15.3652 7.71344 15.3652 9.37891C15.3652 10.0474 15.2604 10.6836 15.0518 11.29C14.8436 11.8951 14.5304 12.4661 14.1084 13.0039L13.833 13.3545L14.1494 13.668L20.1631 19.6318L20.166 19.6338C20.2363 19.7027 20.2705 19.7795 20.2705 19.8965C20.2704 19.9844 20.2509 20.0513 20.21 20.1104L20.1621 20.167L20.1602 20.1689C20.0833 20.2466 20.0021 20.2812 19.8867 20.2812C19.772 20.2812 19.7016 20.2471 19.6377 20.1787L19.6318 20.1729L19.625 20.167L13.6367 14.1836L13.3105 13.8584L12.96 14.1562C12.5697 14.4875 12.1179 14.7578 11.6016 14.9658L11.376 15.0518C10.7695 15.2673 10.1165 15.377 9.41406 15.377C7.71323 15.377 6.29193 14.7921 5.11914 13.6182C3.9443 12.4419 3.36235 11.0369 3.3623 9.375C3.3623 7.71324 3.94477 6.30816 5.12109 5.13184C6.29674 3.95603 7.70599 3.37305 9.37695 3.37305ZM9.39062 4.07617C8.01061 4.07627 6.81093 4.53393 5.81543 5.44141L5.61816 5.62891C4.58695 6.65985 4.06543 7.9181 4.06543 9.375C4.06548 10.8318 4.5874 12.0892 5.61816 13.1201C6.65036 14.1525 7.91745 14.6728 9.39062 14.6729C10.8518 14.6729 12.1081 14.1515 13.1289 13.1182C14.1478 12.0868 14.6621 10.8299 14.6621 9.375C14.6621 7.9199 14.1476 6.66228 13.1279 5.63086C12.1067 4.59777 10.8508 4.07617 9.39062 4.07617Z" fill="#CCCCCC" stroke="#CCCCCC"/>
</svg>
